<mxfile host="Electron" modified="2023-10-31T21:47:54.047Z" agent="Mozilla/5.0 (Windows NT 10.0; Win64; x64) AppleWebKit/537.36 (KHTML, like Gecko) draw.io/22.0.3 Chrome/114.0.5735.289 Electron/25.8.4 Safari/537.36" etag="P3JDkDVejJemipOAf4d5" version="22.0.3" type="device">
  <diagram name="Page-1" id="R3jA13j_Blh9UC3ATklB">
    <mxGraphModel dx="2333" dy="2480" grid="1" gridSize="10" guides="1" tooltips="1" connect="1" arrows="1" fold="1" page="1" pageScale="1" pageWidth="850" pageHeight="1100" math="0" shadow="0">
      <root>
        <mxCell id="0" />
        <mxCell id="1" parent="0" />
        <mxCell id="Cof7CUz10aBS_T015wTI-1" value="Publish Project" style="ellipse;whiteSpace=wrap;html=1;" vertex="1" parent="1">
          <mxGeometry x="379" y="40" width="120" height="80" as="geometry" />
        </mxCell>
        <mxCell id="Cof7CUz10aBS_T015wTI-2" value="Start All Services" style="ellipse;whiteSpace=wrap;html=1;" vertex="1" parent="1">
          <mxGeometry x="379" y="160" width="120" height="80" as="geometry" />
        </mxCell>
        <mxCell id="Cof7CUz10aBS_T015wTI-3" value="Activate ML&lt;br&gt;Model" style="ellipse;whiteSpace=wrap;html=1;" vertex="1" parent="1">
          <mxGeometry x="379" y="280" width="120" height="80" as="geometry" />
        </mxCell>
        <mxCell id="Cof7CUz10aBS_T015wTI-4" value="Requesting the HTTPS" style="ellipse;whiteSpace=wrap;html=1;" vertex="1" parent="1">
          <mxGeometry x="379" y="400" width="120" height="80" as="geometry" />
        </mxCell>
        <mxCell id="Cof7CUz10aBS_T015wTI-5" value="Load All API" style="ellipse;whiteSpace=wrap;html=1;" vertex="1" parent="1">
          <mxGeometry x="379" y="520" width="120" height="80" as="geometry" />
        </mxCell>
        <mxCell id="Cof7CUz10aBS_T015wTI-6" value="Manage&lt;br style=&quot;border-color: var(--border-color);&quot;&gt;All Services" style="ellipse;whiteSpace=wrap;html=1;" vertex="1" parent="1">
          <mxGeometry x="379" y="760" width="120" height="80" as="geometry" />
        </mxCell>
        <mxCell id="Cof7CUz10aBS_T015wTI-7" value="Load All Data" style="ellipse;whiteSpace=wrap;html=1;" vertex="1" parent="1">
          <mxGeometry x="379" y="640" width="120" height="80" as="geometry" />
        </mxCell>
        <mxCell id="Cof7CUz10aBS_T015wTI-8" value="Manage &lt;br&gt;Changes" style="ellipse;whiteSpace=wrap;html=1;" vertex="1" parent="1">
          <mxGeometry x="379" y="880" width="120" height="80" as="geometry" />
        </mxCell>
        <mxCell id="Cof7CUz10aBS_T015wTI-9" value="Deploy &lt;br&gt;Services" style="ellipse;whiteSpace=wrap;html=1;" vertex="1" parent="1">
          <mxGeometry x="379" y="1000" width="120" height="80" as="geometry" />
        </mxCell>
        <mxCell id="Cof7CUz10aBS_T015wTI-10" value="" style="swimlane;startSize=0;fontSize=18;" vertex="1" parent="1">
          <mxGeometry x="219" y="-80" width="440" height="1190" as="geometry" />
        </mxCell>
        <mxCell id="Cof7CUz10aBS_T015wTI-11" value="&lt;font style=&quot;font-size: 18px;&quot;&gt;System&lt;br&gt;&lt;/font&gt;" style="text;html=1;strokeColor=none;fillColor=none;align=center;verticalAlign=middle;whiteSpace=wrap;rounded=0;" vertex="1" parent="Cof7CUz10aBS_T015wTI-10">
          <mxGeometry x="190" y="20" width="60" height="30" as="geometry" />
        </mxCell>
        <mxCell id="Cof7CUz10aBS_T015wTI-12" value="&lt;font style=&quot;font-size: 18px;&quot;&gt;User&lt;/font&gt;" style="shape=umlActor;verticalLabelPosition=bottom;verticalAlign=top;html=1;outlineConnect=0;" vertex="1" parent="1">
          <mxGeometry x="40" y="360" width="100" height="190" as="geometry" />
        </mxCell>
        <mxCell id="Cof7CUz10aBS_T015wTI-13" value="&lt;font style=&quot;font-size: 18px;&quot;&gt;Admin&lt;/font&gt;" style="shape=umlActor;verticalLabelPosition=bottom;verticalAlign=top;html=1;outlineConnect=0;" vertex="1" parent="1">
          <mxGeometry x="720" y="360" width="100" height="190" as="geometry" />
        </mxCell>
        <mxCell id="Cof7CUz10aBS_T015wTI-15" value="" style="endArrow=none;html=1;rounded=0;exitX=1;exitY=0.3333333333333333;exitDx=0;exitDy=0;exitPerimeter=0;entryX=0;entryY=0.5;entryDx=0;entryDy=0;" edge="1" parent="1" source="Cof7CUz10aBS_T015wTI-12" target="Cof7CUz10aBS_T015wTI-1">
          <mxGeometry width="50" height="50" relative="1" as="geometry">
            <mxPoint x="140" y="330" as="sourcePoint" />
            <mxPoint x="190" y="280" as="targetPoint" />
          </mxGeometry>
        </mxCell>
        <mxCell id="Cof7CUz10aBS_T015wTI-16" value="" style="endArrow=none;html=1;rounded=0;exitX=0;exitY=0.3333333333333333;exitDx=0;exitDy=0;exitPerimeter=0;entryX=1;entryY=0.5;entryDx=0;entryDy=0;" edge="1" parent="1" source="Cof7CUz10aBS_T015wTI-13" target="Cof7CUz10aBS_T015wTI-8">
          <mxGeometry width="50" height="50" relative="1" as="geometry">
            <mxPoint x="150" y="343" as="sourcePoint" />
            <mxPoint x="389" y="90" as="targetPoint" />
          </mxGeometry>
        </mxCell>
        <mxCell id="Cof7CUz10aBS_T015wTI-17" value="" style="endArrow=none;html=1;rounded=0;exitX=1;exitY=0.3333333333333333;exitDx=0;exitDy=0;exitPerimeter=0;entryX=0;entryY=0.5;entryDx=0;entryDy=0;" edge="1" parent="1" source="Cof7CUz10aBS_T015wTI-12" target="Cof7CUz10aBS_T015wTI-7">
          <mxGeometry width="50" height="50" relative="1" as="geometry">
            <mxPoint x="160" y="353" as="sourcePoint" />
            <mxPoint x="399" y="100" as="targetPoint" />
          </mxGeometry>
        </mxCell>
        <mxCell id="Cof7CUz10aBS_T015wTI-18" value="" style="endArrow=none;html=1;rounded=0;exitX=1;exitY=0.3333333333333333;exitDx=0;exitDy=0;exitPerimeter=0;entryX=0;entryY=0.5;entryDx=0;entryDy=0;" edge="1" parent="1" source="Cof7CUz10aBS_T015wTI-12" target="Cof7CUz10aBS_T015wTI-5">
          <mxGeometry width="50" height="50" relative="1" as="geometry">
            <mxPoint x="170" y="363" as="sourcePoint" />
            <mxPoint x="409" y="110" as="targetPoint" />
          </mxGeometry>
        </mxCell>
        <mxCell id="Cof7CUz10aBS_T015wTI-19" value="" style="endArrow=none;html=1;rounded=0;exitX=1;exitY=0.3333333333333333;exitDx=0;exitDy=0;exitPerimeter=0;entryX=0;entryY=0.5;entryDx=0;entryDy=0;" edge="1" parent="1" source="Cof7CUz10aBS_T015wTI-12" target="Cof7CUz10aBS_T015wTI-4">
          <mxGeometry width="50" height="50" relative="1" as="geometry">
            <mxPoint x="180" y="373" as="sourcePoint" />
            <mxPoint x="419" y="120" as="targetPoint" />
          </mxGeometry>
        </mxCell>
        <mxCell id="Cof7CUz10aBS_T015wTI-20" value="" style="endArrow=none;html=1;rounded=0;exitX=1;exitY=0.3333333333333333;exitDx=0;exitDy=0;exitPerimeter=0;entryX=0;entryY=0.5;entryDx=0;entryDy=0;" edge="1" parent="1" source="Cof7CUz10aBS_T015wTI-12" target="Cof7CUz10aBS_T015wTI-3">
          <mxGeometry width="50" height="50" relative="1" as="geometry">
            <mxPoint x="190" y="383" as="sourcePoint" />
            <mxPoint x="429" y="130" as="targetPoint" />
          </mxGeometry>
        </mxCell>
        <mxCell id="Cof7CUz10aBS_T015wTI-21" value="" style="endArrow=none;html=1;rounded=0;exitX=1;exitY=0.3333333333333333;exitDx=0;exitDy=0;exitPerimeter=0;entryX=0;entryY=0.5;entryDx=0;entryDy=0;" edge="1" parent="1" source="Cof7CUz10aBS_T015wTI-12" target="Cof7CUz10aBS_T015wTI-2">
          <mxGeometry width="50" height="50" relative="1" as="geometry">
            <mxPoint x="200" y="393" as="sourcePoint" />
            <mxPoint x="439" y="140" as="targetPoint" />
          </mxGeometry>
        </mxCell>
        <mxCell id="Cof7CUz10aBS_T015wTI-22" value="" style="endArrow=none;html=1;rounded=0;exitX=1;exitY=0.5;exitDx=0;exitDy=0;entryX=0;entryY=0.3333333333333333;entryDx=0;entryDy=0;entryPerimeter=0;" edge="1" parent="1" source="Cof7CUz10aBS_T015wTI-7" target="Cof7CUz10aBS_T015wTI-13">
          <mxGeometry width="50" height="50" relative="1" as="geometry">
            <mxPoint x="210" y="403" as="sourcePoint" />
            <mxPoint x="449" y="150" as="targetPoint" />
          </mxGeometry>
        </mxCell>
        <mxCell id="Cof7CUz10aBS_T015wTI-23" value="" style="endArrow=none;html=1;rounded=0;exitX=1;exitY=0.5;exitDx=0;exitDy=0;entryX=0;entryY=0.3333333333333333;entryDx=0;entryDy=0;entryPerimeter=0;" edge="1" parent="1" source="Cof7CUz10aBS_T015wTI-5" target="Cof7CUz10aBS_T015wTI-13">
          <mxGeometry width="50" height="50" relative="1" as="geometry">
            <mxPoint x="220" y="413" as="sourcePoint" />
            <mxPoint x="459" y="160" as="targetPoint" />
          </mxGeometry>
        </mxCell>
        <mxCell id="Cof7CUz10aBS_T015wTI-24" value="" style="endArrow=none;html=1;rounded=0;exitX=0;exitY=0.3333333333333333;exitDx=0;exitDy=0;exitPerimeter=0;entryX=1;entryY=0.5;entryDx=0;entryDy=0;" edge="1" parent="1" source="Cof7CUz10aBS_T015wTI-13" target="Cof7CUz10aBS_T015wTI-4">
          <mxGeometry width="50" height="50" relative="1" as="geometry">
            <mxPoint x="230" y="423" as="sourcePoint" />
            <mxPoint x="469" y="170" as="targetPoint" />
          </mxGeometry>
        </mxCell>
        <mxCell id="Cof7CUz10aBS_T015wTI-25" value="" style="endArrow=none;html=1;rounded=0;exitX=0;exitY=0.3333333333333333;exitDx=0;exitDy=0;exitPerimeter=0;entryX=1;entryY=0.5;entryDx=0;entryDy=0;" edge="1" parent="1" source="Cof7CUz10aBS_T015wTI-13" target="Cof7CUz10aBS_T015wTI-3">
          <mxGeometry width="50" height="50" relative="1" as="geometry">
            <mxPoint x="240" y="433" as="sourcePoint" />
            <mxPoint x="479" y="180" as="targetPoint" />
          </mxGeometry>
        </mxCell>
        <mxCell id="Cof7CUz10aBS_T015wTI-26" value="" style="endArrow=none;html=1;rounded=0;exitX=0;exitY=0.3333333333333333;exitDx=0;exitDy=0;exitPerimeter=0;entryX=1;entryY=0.5;entryDx=0;entryDy=0;" edge="1" parent="1" source="Cof7CUz10aBS_T015wTI-13" target="Cof7CUz10aBS_T015wTI-2">
          <mxGeometry width="50" height="50" relative="1" as="geometry">
            <mxPoint x="250" y="443" as="sourcePoint" />
            <mxPoint x="489" y="190" as="targetPoint" />
          </mxGeometry>
        </mxCell>
        <mxCell id="Cof7CUz10aBS_T015wTI-27" value="" style="endArrow=none;html=1;rounded=0;exitX=0;exitY=0.3333333333333333;exitDx=0;exitDy=0;exitPerimeter=0;entryX=1;entryY=0.5;entryDx=0;entryDy=0;" edge="1" parent="1" source="Cof7CUz10aBS_T015wTI-13" target="Cof7CUz10aBS_T015wTI-1">
          <mxGeometry width="50" height="50" relative="1" as="geometry">
            <mxPoint x="260" y="453" as="sourcePoint" />
            <mxPoint x="499" y="200" as="targetPoint" />
          </mxGeometry>
        </mxCell>
        <mxCell id="Cof7CUz10aBS_T015wTI-28" value="" style="endArrow=none;html=1;rounded=0;exitX=1;exitY=0.3333333333333333;exitDx=0;exitDy=0;exitPerimeter=0;entryX=0;entryY=0.5;entryDx=0;entryDy=0;" edge="1" parent="1" source="Cof7CUz10aBS_T015wTI-12" target="Cof7CUz10aBS_T015wTI-9">
          <mxGeometry width="50" height="50" relative="1" as="geometry">
            <mxPoint x="150" y="343" as="sourcePoint" />
            <mxPoint x="389" y="810" as="targetPoint" />
          </mxGeometry>
        </mxCell>
        <mxCell id="Cof7CUz10aBS_T015wTI-29" value="" style="endArrow=none;html=1;rounded=0;exitX=1;exitY=0.3333333333333333;exitDx=0;exitDy=0;exitPerimeter=0;entryX=0;entryY=0.5;entryDx=0;entryDy=0;" edge="1" parent="1" source="Cof7CUz10aBS_T015wTI-12" target="Cof7CUz10aBS_T015wTI-8">
          <mxGeometry width="50" height="50" relative="1" as="geometry">
            <mxPoint x="160" y="353" as="sourcePoint" />
            <mxPoint x="399" y="820" as="targetPoint" />
          </mxGeometry>
        </mxCell>
        <mxCell id="Cof7CUz10aBS_T015wTI-30" value="" style="endArrow=none;html=1;rounded=0;exitX=0;exitY=0.3333333333333333;exitDx=0;exitDy=0;exitPerimeter=0;entryX=1;entryY=0.5;entryDx=0;entryDy=0;" edge="1" parent="1" source="Cof7CUz10aBS_T015wTI-13" target="Cof7CUz10aBS_T015wTI-6">
          <mxGeometry width="50" height="50" relative="1" as="geometry">
            <mxPoint x="170" y="363" as="sourcePoint" />
            <mxPoint x="409" y="830" as="targetPoint" />
          </mxGeometry>
        </mxCell>
        <mxCell id="Cof7CUz10aBS_T015wTI-31" value="" style="endArrow=none;html=1;rounded=0;exitX=1;exitY=0.3333333333333333;exitDx=0;exitDy=0;exitPerimeter=0;entryX=0;entryY=0.5;entryDx=0;entryDy=0;" edge="1" parent="1" source="Cof7CUz10aBS_T015wTI-12" target="Cof7CUz10aBS_T015wTI-6">
          <mxGeometry width="50" height="50" relative="1" as="geometry">
            <mxPoint x="180" y="373" as="sourcePoint" />
            <mxPoint x="380" y="780" as="targetPoint" />
          </mxGeometry>
        </mxCell>
        <mxCell id="Cof7CUz10aBS_T015wTI-32" value="" style="endArrow=none;html=1;rounded=0;exitX=0;exitY=0.3333333333333333;exitDx=0;exitDy=0;exitPerimeter=0;entryX=1;entryY=0.5;entryDx=0;entryDy=0;" edge="1" parent="1" source="Cof7CUz10aBS_T015wTI-13" target="Cof7CUz10aBS_T015wTI-9">
          <mxGeometry width="50" height="50" relative="1" as="geometry">
            <mxPoint x="190" y="383" as="sourcePoint" />
            <mxPoint x="429" y="850" as="targetPoint" />
          </mxGeometry>
        </mxCell>
      </root>
    </mxGraphModel>
  </diagram>
</mxfile>
